<?xml version="1.0" encoding="utf-8"?>
<!-- Generator: Adobe Illustrator 26.0.1, SVG Export Plug-In . SVG Version: 6.00 Build 0)  -->
<svg version="1.1" id="Calque_1" xmlns="http://www.w3.org/2000/svg" xmlns:xlink="http://www.w3.org/1999/xlink" x="0px" y="0px"
	 viewBox="0 0 2326.2 720" style="enable-background:new 0 0 2326.2 720;" xml:space="preserve">
<style type="text/css">
	.st0{display:none;}
	.st1{display:inline;fill:#5838E9;}
	.st2{fill:#5838E9;}
	.st3{fill:#34DDB4;}
	.st4{display:none;fill:#C977CC;}
	.st5{fill:#5890FF;}
	.st6{display:none;fill:#FFFFFF;}
	.st7{display:inline;fill:none;stroke:#C98DE9;stroke-width:32;stroke-miterlimit:10;}
	.st8{display:inline;fill:none;stroke:#588DE9;stroke-width:32;stroke-miterlimit:10;}
	.st9{display:inline;fill:none;stroke:#5838E9;stroke-width:32;stroke-miterlimit:10;}
</style>
<g id="Calque_2_00000173147428067858773990000015250813382528204965_" class="st0">
	
		<image style="display:inline;overflow:visible;enable-background:new    ;" width="87" height="101" xlink:href="8485EE14.jpg"  transform="matrix(0.9999 0 0 0.9999 1690.1813 170.5)">
	</image>
</g>
<g id="Calque_1_00000082346354849439407910000016506243107196367263_">
	<g>
		<path d="M524.6,521.8L423,209h91.2l85.5,270.8h-46l89.7-270.9h81.3l85,270.8h-44.2l87.9-270.9h84.5L836.6,521.7h-94.8l-72.5-230.1
			h25l-74.5,230.2H524.6z"/>
		<path d="M970.2,521.6l-0.1-312.9l142.6-0.1c28.6,0,53.3,4.6,74.2,13.8c20.9,9.2,36.9,22.6,48.1,40s16.8,37.9,16.8,61.4
			c0,24.1-5.6,44.8-16.7,61.9c-11.2,17.1-27.2,30.4-48,39.8c-20.9,9.4-45.6,14.1-74.2,14.1H1019l39.8-38.9l0.1,120.7L970.2,521.6z
			 M1058.7,411.2l-39.8-41.5h88.5c18.5,0,32.3-4,41.6-11.9c9.2-7.9,13.8-19.1,13.8-33.8c0-14-4.6-25.1-13.9-33.3
			c-9.2-8.2-23.1-12.3-41.6-12.3h-88.5l39.8-40.7L1058.7,411.2z"/>
		<path d="M1353.7,527.7c-22.6,0-43.3-3.9-61.9-11.8c-18.6-7.9-34.2-19.3-46.7-34.2l48.2-57.7c8.3,10.7,17,18.8,25.9,24.3
			s18.3,8.3,28.2,8.3c25.9,0,38.9-15.1,38.9-45.2l-0.1-134.1h-107.7v-68.8l195.8-0.1l0.1,198c0,40.5-10.2,70.8-30.8,91
			C1423,517.6,1393,527.7,1353.7,527.7z"/>
		<path d="M1692,527.5c-24.7,0-47.8-4-69.1-12c-21.3-8-39.7-19.4-55.2-34.2c-15.5-14.7-27.7-32-36.4-51.8
			c-8.8-19.8-13.2-41.5-13.2-65c0-23.2,4.4-44.7,13.2-64.4c8.8-19.7,20.9-36.9,36.4-51.6c15.5-14.8,33.8-26.2,55-34.2
			c21.2-8.1,44.2-12.1,69.3-12.1c25,0,48.1,4,69.3,12c21.2,8,39.5,19.4,55,33.9c15.5,14.6,27.6,31.7,36.4,51.4
			c8.8,19.7,13.2,41.3,13.2,64.8c0,23.8-4.3,45.7-12.9,65.5s-20.8,37-36.4,51.6s-34,25.9-55.2,34
			C1740.1,523.5,1717.1,527.5,1692,527.5z M1692,454.3c11.9,0,23-2.1,33.3-6.3c10.3-4.2,19.2-10.2,26.8-18.1
			c7.6-7.9,13.5-17.3,17.9-28.2c4.3-10.9,6.5-23.2,6.5-36.9c0-13.7-2.2-26-6.5-36.9s-10.3-20.3-17.9-28.2
			c-7.6-7.9-16.5-13.9-26.8-18.1s-21.4-6.2-33.3-6.2s-23,2.1-33.3,6.3c-10.3,4.2-19.3,10.2-27,18.1s-13.7,17.3-17.9,28.2
			c-4.2,10.9-6.2,23.2-6.2,36.9c0,13.7,2.1,26,6.3,36.9c4.2,10.9,10.1,20.3,17.9,28.2c7.7,7.9,16.8,13.9,27,18.1
			C1669,452.2,1680.1,454.3,1692,454.3z"/>
		<path d="M1912.8,521.2l-0.1-312.9h88.5l0.1,242.7l148.8-0.1v70.2L1912.8,521.2z"/>
		<path d="M2185.4,521.1c0,0-24.2-206.5,24.9-273.5c33-45.1,63.4-39.4,63.4-39.4l0.1,312.9H2185.4z"/>
	</g>
</g>
<g id="Calque_3" class="st0">
	<path class="st1" d="M1767.2,231.5c-14,18-29,14-46,22c-20.1,9.5-20,23.7-28,22c-9.5-2-9.3-30.2-5-50c5.1-23.7,16.6-40.3,35-47
		c11-4,27.9,2,38,13C1772.2,203.5,1778.1,217.4,1767.2,231.5z"/>
</g>
<g id="Calque_3_-_copie" class="st0">
	<path class="st1" d="M2189.5,184.4c-38.1,15.4-56.8,48.5-61,48.5c-17.9,0.2-15.7-71.8-4.3-107.4c14.7-46.3,33.7-69.5,52.6-75.8
		c16.4-5.5,48.4-4.2,77.2,28.1C2274,100.2,2297.8,140.7,2189.5,184.4z"/>
</g>
<g id="Calque_3_-_copie_2">
	<path class="st2" d="M2237.9,170c-34.9,14.1-52,44.3-55.8,44.4c-16.4,0.1-14.3-65.7-4-98.3c13.5-42.4,30.8-63.6,48.2-69.4
		c15-5,44.3-3.9,70.6,25.7C2315.2,93,2337,130,2237.9,170z"/>
</g>
<g id="Flame">
	<path class="st3" d="M67.1,284.4c42.1-93.4,5-165.7,12.4-172.8c32.1-31,166.2,83.8,207.5,168.2c53.8,109.7,59.8,184.4,36.5,228.4
		c-20.1,38.2-80,90.8-188,81.1C60.7,582.6-52.4,549.7,67.1,284.4z"/>
	<path class="st4" d="M67.1,299.4c42.1-93.4,5-165.7,12.4-172.8c32.1-31,166.2,83.8,207.5,168.2c53.8,109.7,59.8,184.4,36.5,228.4
		c-20.1,38.2-80,90.8-188,81.1C60.7,597.6-52.4,564.7,67.1,299.4z"/>
	<path class="st5" d="M86.2,267.1c54.8-71.6,53-157,60.8-161.6C180.7,85.8,257.5,230,276.3,312.4c24.4,107.2,14.6,173.4-14.2,206.4
		c-24.9,28.6-86.9,60.8-177.9,28.2C21.1,524.4-69.6,470.5,86.2,267.1z"/>
	<path class="st2" d="M95.4,315.2c35-74.6,17.1-149.2,23.2-154.9c26.2-24.6,121.5,85.3,153.7,153.7c41.9,88.8,45.8,149,26.6,184.1
		c-16.6,30.5-65.4,72.1-152.1,63.1C86.7,555-3.9,527.2,95.4,315.2z"/>
	<path class="st6" d="M163.8,442.4c13-22.3,17.4-22.9,19.7-24.1c10.8-5.4,29,10.2,37.1,32.4c10.6,28.9,8.5,43.8,1.6,54.2
		c-6.1,9.1-22.5,20.7-49.3,15.6C154.3,517,126.8,505.9,163.8,442.4z"/>
</g>
<g id="Flame_-_copie" class="st0">
	<path class="st7" d="M113.4,299.4c42.1-93.4,5-165.7,12.4-172.8c32.1-31,166.2,83.8,207.5,168.2c53.8,109.7,59.8,184.4,36.5,228.4
		c-20.1,38.2-80,90.8-188,81.1C107,597.6-6.1,564.7,113.4,299.4z"/>
	<path class="st8" d="M149.5,274c72.3-62.6,88.6-149.6,97.7-152.8c39.4-13.8,88.5,146.7,90.4,233.8c2.5,113.3-21.8,178.6-58.7,206.8
		c-32,24.4-103.4,45.7-191.1-4.1C27,523.1-55.8,451.7,149.5,274z"/>
	<path class="st9" d="M139.6,286.4c48.8-77.5,39.7-160.8,47.2-166.3c32.1-23.9,121.2,106.4,147,184.5
		c33.5,101.5,29.3,167.5,3.3,203.7c-22.5,31.4-81.9,71.4-175.7,52.1C96.3,546.9,1,506.7,139.6,286.4z"/>
</g>
</svg>
