<svg viewBox="0 0 512 512" xmlns="http://www.w3.org/2000/svg">
<!-- <svg width="512" height="512" xmlns="http://www.w3.org/2000/svg" xmlns:svg="http://www.w3.org/2000/svg"> -->
 <!-- <path d="m391 195.5c0-107.800781-87.699219-195.5-195.5-195.5s-195.5 87.699219-195.5 195.5c0 35.132812 9.351562 69.339844 27.109375 99.371094l-26.390625 95.40625 95.410156-26.386719c30.03125 17.757813 64.238282 27.109375 99.371094 27.109375 107.800781 0 195.5-87.699219 195.5-195.5zm-225.5-45.5h-30c0-33.085938 26.914062-60 60-60s60 26.914062 60 60c0 16.792969-7.109375 32.933594-19.511719 44.277344l-25.488281 23.328125v23.394531h-30v-36.605469l35.234375-32.25c6.296875-5.761719 9.765625-13.625 9.765625-22.144531 0-16.542969-13.457031-30-30-30s-30 13.457031-30 30zm15 121h30v30h-30zm0 0" /> -->
 <g class="layer">
  <title>Layer 1</title>
  <path fill="black" id="svg_1" d="m512,346.5c0,-74.62891 -50.28516,-139.83203 -121.19531,-159.48047c-4.45703,-103.8789 -90.34766,-187.01953 -195.30469,-187.01953c-107.80078,0 -195.5,87.69922 -195.5,195.5c0,35.13281 9.35156,69.33984 27.10938,99.37109l-26.39063,95.40625l95.41016,-26.38671c27.60547,16.32421 58.74609,25.51953 90.88672,26.90625c19.64453,70.91406 84.85156,121.20312 159.48437,121.20312c29.78906,0 58.75781,-7.93359 84.21094,-23.00781l80.5664,22.28515l-22.28515,-80.5664c15.07422,-25.45313 23.00781,-54.42188 23.00781,-84.21094zm-411.13672,-15.04687l-57.11719,15.80078l15.80078,-57.11719l-3.60156,-5.63281c-16.97265,-26.55469 -25.94531,-57.33203 -25.94531,-89.00391c0,-91.25781 74.24219,-165.5 165.5,-165.5s165.5,74.24219 165.5,165.5s-74.24219,165.5 -165.5,165.5c-31.67187,0 -62.44531,-8.97266 -89.00391,-25.94531l-5.63281,-3.60156zm367.39063,136.80078l-42.38282,-11.72657l-5.66015,3.6836c-21.94141,14.2539 -47.4336,21.78906 -73.71094,21.78906c-58.65625,0 -110.19922,-37.92578 -128.46094,-92.30859c89.82032,-10.35547 161.29688,-81.83203 171.65625,-171.65625c54.37891,18.26562 92.30469,69.80859 92.30469,128.46484c0,26.27734 -7.53516,51.76953 -21.78906,73.71094l-3.6836,5.66015l11.72657,42.38282zm0,0"/>
  <path fill="black" id="svg_2" d="m180.5,271l30,0l0,30l-30,0l0,-30zm0,0"/>
  <path fill="black" id="svg_3" d="m225.5,150c0,8.51953 -3.46875,16.38281 -9.76562,22.14453l-35.23438,32.25l0,36.60547l30,0l0,-23.39453l25.48828,-23.32813c12.39844,-11.34765 19.51172,-27.48437 19.51172,-44.27734c0,-33.08594 -26.91406,-60 -60,-60s-60,26.91406 -60,60l30,0c0,-16.54297 13.45703,-30 30,-30s30,13.45703 30,30zm0,0"/>
  <path fill="black" id="svg_4" d="m512,346.5c0,-63.53516 -79.44922,-129.23828 -134.03906,-156.82031c-1.69531,121.82031 -68.46094,186.58594 -190.28125,188.28125c27.58203,54.58984 95.28515,134.03906 158.82031,134.03906c29.78906,0 58.75781,-7.93359 84.21094,-23.00781l80.5664,22.28515l-22.28515,-80.5664c15.07422,-25.45313 23.00781,-54.42188 23.00781,-84.21094zm0,0"/>
 </g>
</svg>