<svg viewBox="0 0 258 258" xmlns="http://www.w3.org/2000/svg" xmlns:svg="http://www.w3.org/2000/svg" preserveAspectRatio="xMidYMid">
 <g class="layer">
  <title>Layer 1</title>
  <path id="svg_1" fill="#9B5C8F" d="m24.759,53l208.378,0c13.188,0 23.863,10.675 23.863,23.863l0,79.541c0,13.188 -10.675,23.863 -23.863,23.863l-74.727,0l10.257,25.118l-45.109,-25.118l-98.695,0c-13.187,0 -23.862,-10.675 -23.862,-23.863l0,-79.541c-0.105,-13.083 10.569,-23.863 23.758,-23.863z"/>
  <path id="svg_2" fill="#FFF" d="m15.578,74.75c1.457,-1.978 3.642,-3.018 6.556,-3.226c5.308,-0.417 8.326,2.08 9.054,7.492c3.226,21.75 6.764,40.17 10.51,55.259l22.79,-43.395c2.082,-3.955 4.684,-6.036 7.806,-6.244c4.579,-0.312 7.388,2.601 8.533,8.741c2.602,13.84 5.932,25.6 9.886,35.59c2.706,-26.432 7.285,-45.476 13.737,-57.235c1.56,-2.914 3.85,-4.371 6.868,-4.58c2.394,-0.207 4.579,0.521 6.556,2.082c1.977,1.561 3.018,3.538 3.226,5.932c0.104,1.873 -0.208,3.434 -1.04,4.995c-4.059,7.493 -7.39,20.085 -10.095,37.567c-2.601,16.963 -3.538,30.18 -2.914,39.65c0.209,2.6 -0.208,4.89 -1.248,6.868c-1.25,2.289 -3.122,3.538 -5.516,3.746c-2.706,0.208 -5.515,-1.04 -8.221,-3.85c-9.678,-9.887 -17.379,-24.664 -22.998,-44.332c-6.765,13.32 -11.76,23.31 -14.986,29.97c-6.14,11.76 -11.343,17.796 -15.714,18.108c-2.81,0.208 -5.203,-2.186 -7.284,-7.18c-5.307,-13.633 -11.031,-39.962 -17.17,-78.986c-0.417,-2.706 0.207,-5.1 1.664,-6.972zm223.636,16.338c-3.746,-6.556 -9.262,-10.51 -16.65,-12.072c-1.978,-0.416 -3.85,-0.624 -5.62,-0.624c-9.99,0 -18.107,5.203 -24.455,15.61c-5.412,8.845 -8.117,18.627 -8.117,29.346c0,8.013 1.665,14.881 4.995,20.605c3.746,6.556 9.262,10.51 16.65,12.071c1.977,0.417 3.85,0.625 5.62,0.625c10.094,0 18.211,-5.203 24.455,-15.61c5.411,-8.95 8.117,-18.732 8.117,-29.45c0.104,-8.117 -1.665,-14.882 -4.995,-20.501zm-13.112,28.826c-1.457,6.868 -4.059,11.967 -7.91,15.401c-3.017,2.706 -5.827,3.85 -8.428,3.33c-2.498,-0.52 -4.58,-2.705 -6.14,-6.764c-1.25,-3.226 -1.873,-6.452 -1.873,-9.47c0,-2.601 0.208,-5.203 0.728,-7.596c0.937,-4.267 2.706,-8.43 5.515,-12.384c3.435,-5.1 7.077,-7.18 10.823,-6.452c2.498,0.52 4.58,2.706 6.14,6.764c1.249,3.226 1.873,6.452 1.873,9.47c0,2.706 -0.208,5.307 -0.728,7.7l0,0.001zm-52.033,-28.826c-3.746,-6.556 -9.366,-10.51 -16.65,-12.072c-1.977,-0.416 -3.85,-0.624 -5.62,-0.624c-9.99,0 -18.107,5.203 -24.455,15.61c-5.411,8.845 -8.117,18.627 -8.117,29.346c0,8.013 1.665,14.881 4.995,20.605c3.746,6.556 9.262,10.51 16.65,12.071c1.978,0.417 3.85,0.625 5.62,0.625c10.094,0 18.211,-5.203 24.455,-15.61c5.412,-8.95 8.117,-18.732 8.117,-29.45c0,-8.117 -1.665,-14.882 -4.995,-20.501zm-13.216,28.826c-1.457,6.868 -4.059,11.967 -7.909,15.401c-3.018,2.706 -5.828,3.85 -8.43,3.33c-2.497,-0.52 -4.578,-2.705 -6.14,-6.764c-1.248,-3.226 -1.872,-6.452 -1.872,-9.47c0,-2.601 0.208,-5.203 0.728,-7.596c0.937,-4.267 2.706,-8.43 5.516,-12.384c3.434,-5.1 7.076,-7.18 10.822,-6.452c2.498,0.52 4.58,2.706 6.14,6.764c1.25,3.226 1.873,6.452 1.873,9.47c0.105,2.706 -0.208,5.307 -0.728,7.7l0,0.001z"/>
 </g>
</svg>